<?xml version="1.0" encoding="iso-8859-1"?>
<!-- Generator: Adobe Illustrator 19.0.0, SVG Export Plug-In . SVG Version: 6.00 Build 0)  -->
<svg version="1.1" id="Capa_1" xmlns="http://www.w3.org/2000/svg" xmlns:xlink="http://www.w3.org/1999/xlink" x="0px" y="0px"
	 viewBox="0 0 512 512" style="enable-background:new 0 0 512 512;" xml:space="preserve">
<path style="fill:#585A60;" d="M427.292,512H84.711c-17.852,0-32.377-14.522-32.377-32.374V32.376C52.334,14.524,66.859,0,84.711,0
	h342.581c17.85,0,32.375,14.524,32.375,32.376v447.25C459.668,497.478,445.143,512,427.292,512z"/>
<path style="fill:#434449;" d="M72.878,479.626V32.376C72.878,14.524,87.403,0,105.255,0H84.711
	C66.859,0,52.334,14.524,52.334,32.376v447.25c0,17.852,14.525,32.374,32.377,32.374h20.544
	C87.403,512,72.878,497.478,72.878,479.626z"/>
<path style="fill:#E5E5E5;" d="M310.604,499.637c0,6.828-5.536,12.363-12.363,12.363h-84.48c-6.827,0-12.363-5.535-12.363-12.363
	v-8.242c0-6.827,5.536-12.363,12.363-12.363h84.48c6.827,0,12.363,5.536,12.363,12.363V499.637z"/>
<path style="fill:#C6CBCC;" d="M298.241,493.456h-84.48c-4.987,0-9.273-2.959-11.228-7.212c-1.421,3.092-1.135,4.694-1.135,13.393
	c0,6.828,5.536,12.363,12.363,12.363h84.48c6.827,0,12.363-5.535,12.363-12.363c0-8.657,0.291-10.292-1.135-13.393
	C307.514,490.497,303.228,493.456,298.241,493.456z"/>
<path style="fill:#6EDCF9;" d="M405.249,42.055H106.752c-6.827,0-12.363,5.536-12.363,12.363v294.377
	c0,6.827,5.536,12.363,12.363,12.363h298.497c6.828,0,12.363-5.536,12.363-12.363V54.418
	C417.612,47.59,412.077,42.055,405.249,42.055z"/>
<path style="fill:#58D1ED;" d="M115.558,348.795V54.418c0-6.827,5.536-12.363,12.363-12.363h-21.169
	c-6.827,0-12.363,5.536-12.363,12.363v294.377c0,6.827,5.536,12.363,12.363,12.363h21.169
	C121.094,361.157,115.558,355.622,115.558,348.795z"/>
<path style="fill:#3BBC56;" d="M328.854,147.328l88.758,111.64v93.948c0,5.313-3.359,9.831-8.064,11.578h-113.56l-79.942-100.053
	l93.741-117.113C315.053,140.706,323.589,140.706,328.854,147.328z"/>
<polygon style="fill:#2EAF43;" points="233.325,242.853 216.046,264.441 295.988,364.494 330.515,364.494 "/>
<path style="fill:#5CCC2E;" d="M94.389,352.915v-66.169l65.442-82.314c3.881-4.881,10.174-4.881,14.053,0l127.255,160.061H102.453
	C97.749,362.746,94.389,358.229,94.389,352.915z"/>
<path style="fill:#53BF21;" d="M115.558,352.915V260.12l-21.169,26.626v66.169c0,5.313,3.359,9.831,8.064,11.578h21.169
	C118.917,362.746,115.558,358.229,115.558,352.915z"/>
<circle style="fill:#FFA92C;" cx="211.141" cy="138.24" r="35.735"/>
<path style="fill:#F4911C;" d="M222.322,104.296c-23.127-7.614-46.913,9.65-46.913,33.943c0,24.338,23.83,41.542,46.913,33.943
	C189.698,161.444,189.654,115.049,222.322,104.296z"/>
<g>
</g>
<g>
</g>
<g>
</g>
<g>
</g>
<g>
</g>
<g>
</g>
<g>
</g>
<g>
</g>
<g>
</g>
<g>
</g>
<g>
</g>
<g>
</g>
<g>
</g>
<g>
</g>
<g>
</g>
</svg>
