<?xml version="1.0" encoding="iso-8859-1"?>
<!-- Generator: Adobe Illustrator 19.0.0, SVG Export Plug-In . SVG Version: 6.00 Build 0)  -->
<svg version="1.1" id="Capa_1" xmlns="http://www.w3.org/2000/svg" xmlns:xlink="http://www.w3.org/1999/xlink" x="0px" y="0px"
	 viewBox="0 0 512 512" style="enable-background:new 0 0 512 512;" xml:space="preserve">
<g>
	<rect x="209.12" y="197.65" style="fill:#707275;" width="93.75" height="40.649"/>
	<path style="fill:#707275;" d="M141.03,201.067h-33.213c-6.827,0-12.363,5.536-12.363,12.363v23.835h57.939V213.43
		C153.393,206.602,147.857,201.067,141.03,201.067z"/>
</g>
<g>
	<rect x="209.12" y="197.65" style="fill:#5B5E63;" width="20.605" height="40.649"/>
	<path style="fill:#5B5E63;" d="M128.422,201.067h-20.605c-6.827,0-12.363,5.536-12.363,12.363v23.835h20.605V213.43
		C116.059,206.602,121.594,201.067,128.422,201.067z"/>
</g>
<path style="fill:#BABABA;" d="M320.832,189.375l0.047-0.162c0.001-0.004,0.004-0.013,0.004-0.013l17.127-59.379h-82.009h-0.002
	H173.99l17.127,59.379c0,0,0.002,0.009,0.004,0.013l0.047,0.162c0.41,1.373,3.552,10.662,13.57,10.662h51.261h0.002h51.261
	C317.281,200.037,320.423,190.748,320.832,189.375z"/>
<path style="fill:#A9AAA9;" d="M210.35,189.375l-0.047-0.162c-0.001-0.004-0.004-0.013-0.004-0.013l-17.127-59.379H173.99
	l17.127,59.379c0,0,0.002,0.009,0.004,0.013l0.047,0.162c0.41,1.373,3.552,10.662,13.57,10.662h19.182
	C213.902,200.037,210.76,190.748,210.35,189.375z"/>
<path style="fill:#585A60;" d="M449.8,236.234h-61.545h-264.51H62.2c-6.829,0-12.363,5.536-12.363,12.363v251.04
	c0,6.827,5.534,12.363,12.363,12.363h61.545h264.51H449.8c6.827,0,12.363-5.536,12.363-12.363v-251.04
	C462.163,241.77,456.627,236.234,449.8,236.234z"/>
<path style="fill:#434449;" d="M70.463,499.637v-251.04c0-6.827,5.534-12.363,12.363-12.363H62.2
	c-6.829,0-12.363,5.536-12.363,12.363v251.04c0,6.827,5.534,12.363,12.363,12.363h20.626C75.997,512,70.463,506.464,70.463,499.637z
	"/>
<path style="fill:#585A60;" d="M338.008,134.237H173.99c-11.23,0-20.367-9.137-20.367-20.368V20.37C153.622,9.138,162.76,0,173.99,0
	h164.018c11.232,0,20.37,9.138,20.37,20.37v93.499C358.378,125.099,349.24,134.237,338.008,134.237z"/>
<path style="fill:#434449;" d="M173.99,113.868V20.37C173.99,9.138,183.127,0,194.357,0H173.99c-11.23,0-20.367,9.138-20.367,20.37
	v93.499c0,11.231,9.137,20.368,20.367,20.368h20.367C183.127,134.237,173.99,125.099,173.99,113.868z"/>
<circle style="fill:#6EDCF9;" cx="256" cy="374.12" r="103.23"/>
<path style="fill:#58D1ED;" d="M173.376,374.118c0-53.535,40.752-97.547,92.925-102.718c-3.389-0.335-6.825-0.51-10.302-0.51
	c-57.012,0-103.228,46.216-103.228,103.228c0,57.01,46.216,103.228,103.228,103.228c3.478,0,6.913-0.175,10.302-0.511
	C214.128,471.665,173.376,427.651,173.376,374.118z"/>
<circle style="fill:#4A94CC;" cx="256" cy="374.12" r="62.829"/>
<path style="fill:#358CB7;" d="M213.262,374.118c0-31.279,22.86-57.21,52.783-62.02c-3.272-0.526-6.624-0.809-10.044-0.809
	c-34.7,0-62.829,28.131-62.829,62.829c0,34.7,28.129,62.827,62.829,62.827c3.42,0,6.773-0.284,10.044-0.809
	C236.122,431.327,213.262,405.398,213.262,374.118z"/>
<path style="fill:#707275;" d="M462.163,270.89h-50.082c-6.827,0-12.363,5.535-12.363,12.363v18.435
	c0,6.828,5.536,12.363,12.363,12.363h50.082V270.89z"/>
<path style="fill:#5B5E63;" d="M399.829,281.681c-0.066,0.516-0.111,1.038-0.111,1.572v18.435c0,6.828,5.536,12.363,12.363,12.363
	h50.082v-21.58h-50.082C405.788,292.471,400.603,287.765,399.829,281.681z"/>
<path style="fill:#6EDCF9;" d="M317.962,33.704h-31.38h-29.784h-1.595h-29.785h-31.379c-3.708,0-6.714,3.006-6.714,6.714v18.146
	v4.72v8.008V81.43v12.727c0,3.707,3.006,6.714,6.714,6.714h31.379h29.785h1.595h29.784h31.38c3.707,0,6.714-3.006,6.714-6.714V81.43
	V71.291v-8.008v-4.72V40.418C324.675,36.711,321.669,33.704,317.962,33.704z"/>
<path style="fill:#58D1ED;" d="M207.93,94.157V81.43V71.291v-8.008v-4.72V40.418c0-3.708,3.006-6.714,6.714-6.714h-20.605
	c-3.708,0-6.714,3.006-6.714,6.714v18.146v4.72v8.008V81.43v12.727c0,3.707,3.006,6.714,6.714,6.714h20.605
	C210.935,100.871,207.93,97.864,207.93,94.157z"/>
<g>
</g>
<g>
</g>
<g>
</g>
<g>
</g>
<g>
</g>
<g>
</g>
<g>
</g>
<g>
</g>
<g>
</g>
<g>
</g>
<g>
</g>
<g>
</g>
<g>
</g>
<g>
</g>
<g>
</g>
</svg>
