<?xml version="1.0" encoding="iso-8859-1"?>
<!-- Generator: Adobe Illustrator 19.0.0, SVG Export Plug-In . SVG Version: 6.00 Build 0)  -->
<svg version="1.1" id="Capa_1" xmlns="http://www.w3.org/2000/svg" xmlns:xlink="http://www.w3.org/1999/xlink" x="0px" y="0px"
	 viewBox="0 0 512 512" style="enable-background:new 0 0 512 512;" xml:space="preserve">
<rect x="372.34" y="299.509" style="fill:#E5E5E5;" width="84.06" height="63.28"/>
<rect x="372.34" y="340.779" style="fill:#C6CBCC;" width="84.06" height="22.01"/>
<path style="fill:#BABABA;" d="M63.276,258.011C28.33,258.021,0,290.761,0,331.152c0,40.387,28.33,73.127,63.276,73.139V258.011z"/>
<path style="fill:#A9AAA9;" d="M20.453,331.152c0-32.115,17.918-59.374,42.823-69.209v-3.933C28.33,258.021,0,290.761,0,331.152
	c0,40.387,28.33,73.127,63.276,73.139v-3.934C38.371,390.522,20.453,363.264,20.453,331.152z"/>
<path style="fill:#BABABA;" d="M512,418.684c0,4.194-3.399,7.593-7.591,7.593h-48.09c-4.198,0-7.595-3.399-7.595-7.593V243.619
	c0-4.194,3.397-7.593,7.595-7.593h48.09c4.192,0,7.591,3.399,7.591,7.593V418.684z"/>
<path style="fill:#A9AAA9;" d="M469.37,418.684V243.619c0-4.194,3.397-7.593,7.595-7.593h-20.646c-4.198,0-7.595,3.399-7.595,7.593
	v175.065c0,4.194,3.397,7.593,7.595,7.593h20.646C472.768,426.277,469.37,422.878,469.37,418.684z"/>
<path style="fill:#707275;" d="M210.969,164.024c-0.341,0.65-0.689,1.296-1.043,1.939c5.839,80.709-100.094,112.883-147.682,51.277
	v225.682c0,11.821,9.583,21.405,21.406,21.405h278.238c11.821,0,21.405-9.583,21.405-21.405V221.354
	C324.859,274.661,221.155,245.825,210.969,164.024z"/>
<path style="fill:#5B5E63;" d="M83.922,442.921V236.875c-8.339-5.217-15.685-11.876-21.678-19.636v225.682
	c0,11.821,9.583,21.405,21.406,21.405h21.679C93.506,464.326,83.922,454.742,83.922,442.921z"/>
<path style="fill:#585A60;" d="M62.244,404.292v38.629c0,11.821,9.583,21.405,21.406,21.405h278.238
	c11.821,0,21.405-9.583,21.405-21.405v-38.629H62.244z"/>
<path style="fill:#434449;" d="M83.922,442.921v-38.629H62.244v38.629c0,11.821,9.583,21.405,21.406,21.405h21.679
	C93.506,464.326,83.922,454.742,83.922,442.921z"/>
<path style="fill:#6EDCF9;" d="M127.605,89.422c-45.598,0-82.563,36.964-82.563,82.564c0,45.596,36.965,82.562,82.563,82.562
	c45.599,0,82.563-36.966,82.563-82.562C210.169,126.386,173.205,89.422,127.605,89.422z M127.605,217.538
	c-25.159,0-45.553-20.393-45.553-45.551c0-25.159,20.394-45.553,45.553-45.553c25.158,0,45.552,20.394,45.552,45.553
	C173.157,197.144,152.763,217.538,127.605,217.538z"/>
<path style="fill:#58D1ED;" d="M65.688,171.987c0-42.101,31.518-76.816,72.24-81.899c-49.768-6.212-92.887,32.593-92.887,81.899
	c0,49.296,43.111,88.11,92.887,81.897C97.206,248.8,65.688,214.084,65.688,171.987z"/>
<path style="fill:#6EDCF9;" d="M313.604,47.678c-57.127,0-103.436,46.309-103.436,103.437c0,57.123,46.308,103.435,103.436,103.435
	c57.126,0,103.437-46.311,103.437-103.435C417.041,93.987,370.731,47.678,313.604,47.678z M313.605,214.067
	c-34.769,0-62.955-28.183-62.955-62.952s28.186-62.955,62.955-62.955s62.955,28.186,62.955,62.955
	C376.561,185.884,348.374,214.067,313.605,214.067z"/>
<path style="fill:#58D1ED;" d="M230.815,151.115c0-53.643,40.833-97.745,93.112-102.925
	c-61.306-6.068-113.759,42.058-113.759,102.925c0,60.855,52.447,108.993,113.759,102.923
	C271.648,248.857,230.815,204.754,230.815,151.115z"/>
<g>
</g>
<g>
</g>
<g>
</g>
<g>
</g>
<g>
</g>
<g>
</g>
<g>
</g>
<g>
</g>
<g>
</g>
<g>
</g>
<g>
</g>
<g>
</g>
<g>
</g>
<g>
</g>
<g>
</g>
</svg>
