<?xml version="1.0" standalone="no"?>
<!DOCTYPE svg PUBLIC "-//W3C//DTD SVG 20010904//EN"
 "http://www.w3.org/TR/2001/REC-SVG-20010904/DTD/svg10.dtd">
<svg version="1.0" xmlns="http://www.w3.org/2000/svg"
 width="194.000000pt" height="194.000000pt" viewBox="0 0 194.000000 194.000000"
 preserveAspectRatio="xMidYMid meet">
<metadata>
Created by potrace 1.11, written by Peter Selinger 2001-2013
</metadata>
<g transform="translate(0.000000,194.000000) scale(0.100000,-0.100000)"
fill="#000000" stroke="none">
<path d="M14 1651 c-2 -2 -4 -71 -4 -153 l0 -148 35 0 35 0 1 53 c0 28 0 80 0
114 l0 62 112 3 112 3 -1 30 c-1 17 -2 32 -3 35 -1 6 -281 7 -287 1z"/>
<path d="M1639 1648 c-1 -5 -2 -20 -3 -35 l-1 -28 113 -3 112 -3 0 -114 0
-115 35 0 35 0 0 153 0 153 -145 -1 c-80 0 -146 -3 -146 -7z"/>
<path d="M306 1331 c-3 -9 -4 -184 -4 -388 l1 -373 74 0 73 0 1 83 c1 45 0
117 0 160 -1 42 2 77 6 77 5 0 69 -72 143 -160 l134 -160 100 0 99 0 -24 27
c-13 15 -26 30 -29 33 -3 3 -41 48 -85 100 -44 52 -82 97 -85 100 -37 34 -129
154 -124 161 3 6 66 85 140 177 74 92 134 170 134 174 0 7 -156 6 -163 -2 -5
-5 -89 -108 -147 -180 -19 -24 -50 -61 -67 -82 l-33 -39 1 128 c0 70 0 140 0
154 -1 26 -2 27 -71 26 -55 0 -71 -4 -74 -16z"/>
<path d="M1264 1336 c-106 -26 -197 -103 -249 -211 -27 -54 -29 -70 -29 -165
0 -97 2 -110 30 -170 38 -80 106 -150 182 -187 51 -25 67 -28 157 -27 110 0
172 18 239 69 l36 27 0 182 0 182 -122 -1 -123 0 -3 -72 -3 -73 51 0 50 0 0
-65 c0 -62 -1 -65 -32 -81 -31 -16 -107 -21 -156 -10 -144 32 -209 230 -119
363 45 65 93 88 187 88 63 0 83 -4 122 -27 l48 -26 50 56 49 57 -22 18 c-87
68 -233 99 -343 73z"/>
<path d="M33 582 c-23 -3 -23 -6 -23 -153 0 -82 3 -150 8 -150 25 -4 274 -4
280 1 4 3 7 19 8 35 l0 30 -110 5 -111 5 -2 70 c-1 39 -2 89 -2 111 -1 44 -10
52 -48 46z"/>
<path d="M1865 580 c-3 -4 -5 -57 -6 -119 l-1 -111 -109 0 c-65 0 -110 -4
-110 -10 -1 -5 -2 -22 -3 -37 l-1 -28 145 0 145 0 3 151 3 152 -31 4 c-17 3
-33 2 -35 -2z"/>
</g>
</svg>
